<!DOCTYPE svg PUBLIC "-//W3C//DTD SVG 1.1//EN" "http://www.w3.org/Graphics/SVG/1.1/DTD/svg11.dtd">
<!-- Uploaded to: SVG Repo, www.svgrepo.com, Transformed by: SVG Repo Mixer Tools -->
<svg height="800px" width="800px" version="1.1" id="_x32_" xmlns="http://www.w3.org/2000/svg" xmlns:xlink="http://www.w3.org/1999/xlink" viewBox="0 0 512 512" xml:space="preserve" fill="#004225" stroke="#004225">
<g id="SVGRepo_bgCarrier" stroke-width="0"/>
<g id="SVGRepo_tracerCarrier" stroke-linecap="round" stroke-linejoin="round"/>
<g id="SVGRepo_iconCarrier"> <style type="text/css"> .st0{fill:    ;} </style> <g> <path class="st0" d="M191.4,164.127c29.081-9.964,44.587-41.618,34.622-70.699c-9.952-29.072-41.6-44.592-70.686-34.626 c-29.082,9.956-44.588,41.608-34.632,70.69C130.665,158.582,162.314,174.075,191.4,164.127z"/> <path class="st0" d="M102.394,250.767v0.01c16.706-25.815,9.316-60.286-16.484-76.986c-25.81-16.691-60.273-9.316-76.978,16.489 v0.01c-16.695,25.805-9.306,60.268,16.495,76.958C51.236,283.957,85.694,276.573,102.394,250.767z"/> <path class="st0" d="M320.6,164.127c29.086,9.948,60.734-5.545,70.695-34.636c9.956-29.081-5.55-60.734-34.631-70.69 c-29.086-9.966-60.734,5.555-70.686,34.626C276.013,122.509,291.519,154.163,320.6,164.127z"/> <path class="st0" d="M256,191.489c-87.976,0-185.048,121.816-156.946,208.493c27.132,83.684,111.901,49.195,156.946,49.195 c45.045,0,129.813,34.489,156.945-49.195C441.048,313.305,343.976,191.489,256,191.489z"/> <path class="st0" d="M503.068,190.289v-0.01c-16.705-25.805-51.166-33.18-76.976-16.489c-25.801,16.7-33.19,51.171-16.486,76.986 v-0.01c16.7,25.806,51.158,33.19,76.968,16.481C512.374,250.557,519.764,216.095,503.068,190.289z"/> </g> </g>
</svg>